#!OML:ASF H:\GeneralSubjects\Female5\Project 1\Capture day 1\Session 1\Female5.ASF
:FULLY-SPECIFIED
:DEGREES
342
root -5.63566 16.3569 5.11631 -3.39125 84.9777 -23.3668
lowerback 9.65538 1.16359 2.94641
upperback -9.15628 2.52288 1.50967
thorax -15.6391 1.04978 -0.557602
lowerneck -14.7145 -1.79461 -0.664839
upperneck 37.009 0.563032 -4.16304
head 15.5005 0.0490111 -1.42424
rclavicle -1.19271e-014 -1.98785e-015
rhumerus -32.3938 23.1095 -77.0703
rradius 44.8625
rwrist -16.2991
rhand -24.469 -22.5272
rfingers 7.12502
rthumb 2.0244 -52.4974
lclavicle -1.19271e-014 -1.98785e-015
lhumerus -39.6591 -13.672 82.1889
lradius 50.7813
lwrist -10.5366
lhand -28.8773 36.9597
lfingers 7.12502
lthumb -2.23322 66.9278
rfemur -23.922 33.9011 17.4183
rtibia -0.827065
rfoot -28.7248 -31.5573
rtoes -20.4517
lfemur -14.6755 -25.0303 -25.4362
ltibia 1.91702
lfoot -31.2776 4.6039
ltoes -34.0933
343
root -5.56628 16.3408 5.12461 -3.4584 85.3099 -23.9385
lowerback 9.82471 1.13755 3.11527
upperback -8.84133 2.49177 1.5018
thorax -15.3564 1.01491 -0.654572
lowerneck -14.7887 -1.81148 -0.761672
upperneck 36.6236 0.53157 -4.19463
head 15.3287 0.00600416 -1.4205
rclavicle 1.70458e-014 7.95139e-015
rhumerus -37.3072 22.4451 -78.8476
rradius 43.6404
rwrist -15.66
rhand -23.7627 -22.7111
rfingers 7.12502
rthumb 2.70651 -52.6737
lclavicle 1.70458e-014 7.95139e-015
lhumerus -43.7616 -12.8302 82.7405
lradius 46.8288
lwrist -12.9576
lhand -28.279 36.4182
lfingers 7.12502
lthumb -1.65534 66.3915
rfemur -22.6893 33.0039 18.0365
rtibia -2.61514
rfoot -29.4591 -30.424
rtoes -16.4285
lfemur -15.2816 -25.2214 -25.336
ltibia 2.40132
lfoot -31.2391 3.96559
ltoes -34.1384
344
root -5.49224 16.331 5.13645 -4.59637 85.5696 -25.5764
lowerback 10.0217 1.13291 3.28283
upperback -8.47755 2.49444 1.54005
thorax -15.0356 1.00078 -0.707292
lowerneck -14.9128 -1.83109 -0.861708
upperneck 36.136 0.48081 -4.22597
head 15.1209 -0.0489519 -1.41828
rclavicle -1.19271e-015 -2.38542e-015
rhumerus -42.4054 21.3625 -80.3891
rradius 42.3501
rwrist -15.0439
rhand -23.1786 -22.739
rfingers 7.12502
rthumb 3.2706 -52.6936
lclavicle -1.19271e-015 -2.38542e-015
lhumerus -47.8534 -11.5212 82.6426
lradius 42.7885
lwrist -15.4233
lhand -27.683 35.9338
lfingers 7.12502
lthumb -1.07979 65.9108
rfemur -21.4276 32.1595 18.7409
rtibia -4.45857
rfoot -30.4743 -28.8013
rtoes -10.5065
lfemur -15.8367 -25.4475 -25.0942
ltibia 2.84358
lfoot -31.2952 3.43105
ltoes -34.3878
345
root -5.41446 16.3289 5.15106 -6.64774 85.7272 -28.1538
lowerback 10.2245 1.15252 3.43199
upperback -8.07919 2.53142 1.61884
thorax -14.681 1.00927 -0.712489
lowerneck -15.0094 -1.83375 -0.850304
upperneck 35.4714 0.43013 -4.34893
head 14.8255 -0.103886 -1.47035
rclavicle -5.56597e-015 2.38542e-014
rhumerus -47.5306 19.8828 -81.562
rradius 40.914
rwrist -14.5595
rhand -22.6615 -22.6347
rfingers 7.12502
rthumb 3.77 -52.5811
lclavicle -5.56597e-015 2.38542e-014
lhumerus -51.8927 -9.80169 81.7068
lradius 38.7558
lwrist -17.8486
lhand -27.0366 35.6515
lfingers 7.12502
lthumb -0.455404 65.6308
rfemur -20.8982 31.4065 19.3881
rtibia -5.52837
rfoot -29.8726 -28.6306
rtoes -9.63743
lfemur -16.365 -25.6936 -24.7051
ltibia 3.209
lfoot -31.4449 3.04667
ltoes -34.7913
346
root -5.33432 16.3341 5.16756 -9.0041 85.7773 -31.0942
lowerback 10.4018 1.19551 3.52174
upperback -7.67001 2.59306 1.72547
thorax -14.3029 1.039 -0.65886
lowerneck -15.0735 -1.82229 -0.78773
upperneck 34.6973 0.375361 -4.48691
head 14.4774 -0.156725 -1.53475
rclavicle -4.17448e-015 -1.59028e-014
rhumerus -52.5722 18.1045 -82.2836
rradius 39.1771
rwrist -14.1695
rhand -22.3457 -22.4393
rfingers 7.12502
rthumb 4.07495 -52.38
lclavicle -4.17448e-015 -1.59028e-014
lhumerus -55.8719 -7.76035 79.726
lradius 34.7325
lwrist -20.5101
lhand -26.1784 35.03
lfingers 7.12502
lthumb 0.373459 65.0094
rfemur -20.6612 30.7239 19.9596
rtibia -6.31303
rfoot -29.0722 -28.4569
rtoes -9.47175
lfemur -16.9002 -25.9582 -24.1953
ltibia 3.47768
lfoot -31.6823 2.79803
ltoes -35.2262
347
root -5.25267 16.3443 5.18557 -10.8664 85.7401 -33.6025
lowerback 10.5359 1.2568 3.50262
upperback -7.26984 2.66194 1.84276
thorax -13.9158 1.08455 -0.533632
lowerneck -15.0636 -1.79852 -0.689401
upperneck 33.8535 0.316319 -4.61429
head 14.0885 -0.204279 -1.59798
rclavicle -7.95139e-016 -1.43125e-014
rhumerus -57.4552 16.1409 -82.4748
rradius 37.0777
rwrist -13.835
rhand -22.2119 -22.3695
rfingers 7.12502
rthumb 4.20413 -52.3077
lclavicle -7.95139e-016 -1.43125e-014
lhumerus -59.8187 -5.58952 76.5763
lradius 30.7948
lwrist -23.5251
lhand -25.1869 34.2316
lfingers 7.12502
lthumb 1.33105 64.2072
rfemur -20.7169 30.099 20.404
rtibia -6.81741
rfoot -28.101 -28.274
rtoes -10.0694
lfemur -17.4397 -26.2338 -23.6329
ltibia 3.63597
lfoot -31.9912 2.665
ltoes -35.6363
348
root -5.17025 16.357 5.20568 -11.9204 85.6462 -35.3458
lowerback 10.6297 1.32844 3.35626
upperback -6.88615 2.72317 1.95913
thorax -13.5317 1.13834 -0.336131
lowerneck -15.0144 -1.76529 -0.629554
upperneck 33.0484 0.256169 -4.6465
head 13.7172 -0.24233 -1.61542
rclavicle 1.59028e-015 3.18055e-015
rhumerus -62.1593 14.1246 -82.0906
rradius 34.5935
rwrist -13.3753
rhand -22.1135 -22.5248
rfingers 7.12502
rthumb 4.29915 -52.4612
lclavicle 1.59028e-015 3.18055e-015
lhumerus -63.7358 -3.50624 72.1204
lradius 26.9577
lwrist -27.2216
lhand -24.3028 33.2242
lfingers 7.12502
lthumb 2.18489 63.1928
rfemur -20.9793 29.5228 20.7399
rtibia -7.12056
rfoot -27.058 -28.027
rtoes -11.0599
lfemur -17.9539 -26.5116 -23.0658
ltibia 3.66688
lfoot -32.3434 2.59375
ltoes -35.9331
349
root -5.08827 16.3704 5.22899 -12.448 85.5277 -36.5855
lowerback 10.6987 1.39775 3.10427
upperback -6.52497 2.76389 2.06875
thorax -13.1667 1.19038 -0.0823839
lowerneck -14.91 -1.7197 -0.542198
upperneck 32.2951 0.200974 -4.63819
head 13.3642 -0.266864 -1.62083
rclavicle -1.51076e-014 7.95139e-016
rhumerus -66.684 12.1866 -81.1064
rradius 31.7806
rwrist -12.6361
rhand -21.8225 -23.0756
rfingers 7.12502
rthumb 4.58016 -53.0061
lclavicle -1.51076e-014 7.95139e-016
lhumerus -67.5982 -1.77414 66.27
lradius 23.2812
lwrist -31.825
lhand -23.7953 32.1611
lfingers 7.12502
lthumb 2.67509 62.124
rfemur -21.3661 28.9774 21.0233
rtibia -7.28704
rfoot -25.9962 -27.7351
rtoes -12.3104
lfemur -18.4331 -26.7595 -22.4993
ltibia 3.58487
lfoot -32.6877 2.49242
ltoes -36.0271
